<svg width="60" height="60" viewBox="0 0 60 60" fill="none" xmlns="http://www.w3.org/2000/svg">
<path d="M20.2878 2.67466C23.8763 1.39925 27.6807 0.843106 31.4841 1.038C35.2874 1.23289 39.0152 2.175 42.4544 3.81054C45.8936 5.44607 48.9771 7.743 51.5286 10.5702C54.0802 13.3974 56.0499 16.6994 57.3253 20.2878C58.6008 23.8763 59.1569 27.6808 58.962 31.4841C58.7671 35.2874 57.825 39.0152 56.1895 42.4544C54.5539 45.8937 52.257 48.9771 49.4298 51.5286C46.6026 54.0802 43.3006 56.0499 39.7121 57.3253C36.1237 58.6008 32.3192 59.1569 28.5159 58.962C24.7126 58.7671 20.9848 57.825 17.5456 56.1895C14.1063 54.5539 11.0229 52.257 8.47135 49.4298C5.9198 46.6026 3.95008 43.3006 2.67466 39.7121C1.39924 36.1237 0.843105 32.3192 1.038 28.5159C1.2329 24.7126 2.17501 20.9848 3.81054 17.5456C5.44608 14.1063 7.74301 11.0229 10.5702 8.47135C13.3974 5.91979 16.6994 3.95007 20.2879 2.67466L20.2878 2.67466Z" stroke="#1B66CC" stroke-width="2"/>
<circle cx="30" cy="30" r="2.5" fill="#1B66CC" stroke="#1B66CC"/>
</svg>
